<?xml version="1.0" encoding="iso-8859-1"?>
<!-- Generator: Adobe Illustrator 19.0.0, SVG Export Plug-In . SVG Version: 6.00 Build 0)  -->
<svg version="1.1" id="Capa_1" xmlns="http://www.w3.org/2000/svg" xmlns:xlink="http://www.w3.org/1999/xlink" x="0px" y="0px"
	 viewBox="0 0 511.999 511.999" style="enable-background:new 0 0 511.999 511.999;" xml:space="preserve">
<g>
	<g>
		<path d="M255.102,224.988c-33.283,0-58.197,29.782-58.197,61.997c0,33.766,26.109,59.997,58.197,59.997
			c32.049,0,59.997-28.186,59.997-61.997C315.098,252.83,288.442,224.988,255.102,224.988z"/>
	</g>
</g>
<g>
	<g>
		<path d="M474.45,325.031c-16.841-9.721-76.814-34.444-130.315-49.558c0.339,3.168,0.961,6.255,0.961,9.511
			c0,36.63-22.069,70.087-53.543,84.12c11.137,10.843,23.072,21.723,35.145,32.08c-31.41,19.513-68.847,25.734-104.219,16.339
			c-7.983-2.051-16.201,2.651-18.339,10.663c-2.124,7.998,2.651,16.215,10.663,18.339c46.253,12.257,94.017,3.908,135.546-25.659
			c8.813,7.09,17.22,13.675,24.594,19.166c-57.987,44.952-137.775,54.447-203.774,22.136c-7.441-3.677-16.42-0.571-20.067,6.855
			c-3.647,7.441-0.586,16.42,6.855,20.067c78.52,38.517,173.198,28.735,243.34-31.406c37.56,20.349,81.198,5.444,100.619-28.209
			C522.582,393.663,510.264,345.713,474.45,325.031z"/>
	</g>
</g>
<g>
	<g>
		<path d="M479.576,269.605c-6.046-89.391-65.786-166.498-149.642-196.216C329.053,32.796,297.7,0,256.901,0
			c-41.351,0-74.996,33.645-74.996,74.996c0,19.406,8.498,83.672,22.072,137.561c14.893-10.914,31.285-17.568,51.124-17.568
			c19.86,0,38.067,6.669,52.968,17.605c3.832-15.193,7.302-31.113,10.235-46.753c32.686,17.392,57.228,47.579,67.073,83.696
			c2.222,8.171,10.658,12.685,18.412,10.531c7.998-2.183,12.714-10.414,10.531-18.412c-12.888-47.315-46.48-86.179-90.786-106.497
			c1.719-11.11,3.144-21.51,4.206-30.591c68.538,27.672,116.852,92.401,121.895,167.058c0.542,7.925,7.134,13.988,14.955,13.988
			c0.337,0,0.688-0.015,1.025-0.029C473.879,285.028,480.133,277.866,479.576,269.605z"/>
	</g>
</g>
<g>
	<g>
		<path d="M166.906,286.984c0-3.237,0.621-6.304,0.956-9.456c-15.059,4.241-30.423,9.003-45.542,14.32
			c-1.45-40.324,13.69-76.571,38.771-101.869c5.83-5.889,5.801-15.38-0.088-21.21c-5.859-5.801-15.351-5.801-21.21,0.088
			c-32.988,33.27-51.581,80.639-46.558,133.71c-10.692,4.149-20.672,8.177-29.191,11.859
			c-10.887-77.338,24.154-150.922,84.024-191.27c6.87-4.629,8.687-13.944,4.058-20.814c-4.658-6.885-13.974-8.687-20.814-4.058
			C60.351,146.1,18.765,234.71,36.068,328.179c-34.771,21.267-46.314,66.018-25.98,101.297c0.146,0.264,0.308,0.513,0.454,0.776
			c20.747,34.956,65.625,46.932,100.966,27.26c0.352-0.19,0.688-0.396,1.04-0.586c0,0,0.015-0.015,0.029-0.015
			c16.843-9.737,68.022-49.157,107.808-87.84C188.945,355.025,166.906,323.588,166.906,286.984z"/>
	</g>
</g>
<g>
</g>
<g>
</g>
<g>
</g>
<g>
</g>
<g>
</g>
<g>
</g>
<g>
</g>
<g>
</g>
<g>
</g>
<g>
</g>
<g>
</g>
<g>
</g>
<g>
</g>
<g>
</g>
<g>
</g>
</svg>
